<?xml version="1.0" standalone="no"?>
<!DOCTYPE svg PUBLIC "-//W3C//DTD SVG 20010904//EN"
 "http://www.w3.org/TR/2001/REC-SVG-20010904/DTD/svg10.dtd">
<svg version="1.0" xmlns="http://www.w3.org/2000/svg"
 width="700.000000pt" height="700.000000pt" viewBox="0 0 700.000000 700.000000"
 preserveAspectRatio="xMidYMid meet">
<metadata>
Created by potrace 1.14, written by Peter Selinger 2001-2017
</metadata>
<g transform="translate(0.000000,700.000000) scale(0.100000,-0.100000)"
fill="#000000" stroke="none">
<path d="M3278 6996 c-1 -2 -39 -6 -83 -10 -432 -33 -901 -171 -1303 -382
-314 -165 -580 -361 -837 -619 -78 -77 -161 -164 -185 -194 -25 -29 -50 -59
-55 -65 -32 -33 -173 -228 -228 -313 -101 -156 -206 -353 -290 -543 -49 -112
-151 -425 -172 -530 -2 -8 -10 -44 -18 -80 -24 -104 -51 -274 -64 -405 -16
-161 -8 -681 12 -755 2 -8 6 -37 10 -65 6 -47 9 -70 21 -138 4 -23 27 -133 39
-187 41 -184 149 -484 242 -680 20 -41 36 -79 36 -85 -1 -13 -3 -25 -58 -287
-24 -119 -47 -230 -50 -245 -2 -15 -29 -145 -59 -289 -30 -143 -58 -276 -61
-295 -3 -19 -11 -54 -16 -79 -6 -25 -13 -55 -15 -67 -2 -13 -6 -33 -8 -45 -4
-19 -54 -262 -71 -343 -3 -17 -13 -66 -30 -153 -6 -31 19 -86 51 -111 42 -33
85 -36 182 -12 48 12 96 23 107 26 11 2 88 20 170 40 130 31 420 100 465 110
8 2 82 19 164 39 82 20 158 38 170 40 11 2 39 9 61 14 22 6 51 13 65 16 14 3
50 11 80 19 30 8 82 21 115 28 33 7 65 13 70 15 6 1 57 13 114 28 l105 26 65
-31 c36 -17 80 -37 96 -44 17 -7 51 -22 76 -33 80 -36 339 -120 464 -151 117
-29 299 -64 400 -76 28 -3 66 -8 85 -10 61 -7 252 -17 345 -18 95 0 339 11
373 18 12 2 47 6 79 10 32 3 81 10 108 15 28 5 64 11 80 14 149 24 509 123
567 156 10 6 23 10 29 10 6 0 25 6 42 14 18 8 66 29 107 46 89 37 378 186 401
206 8 8 19 14 23 14 20 0 383 259 446 319 9 9 34 31 56 50 63 54 143 132 238
232 365 386 643 870 795 1383 18 61 34 117 36 126 2 9 10 45 19 81 15 63 43
210 52 279 2 19 6 49 9 67 21 138 28 627 12 763 -14 116 -18 144 -28 209 -14
89 -45 245 -64 316 -30 113 -37 140 -43 155 -3 8 -6 17 -7 20 -111 365 -307
745 -547 1064 -125 164 -333 390 -458 496 -14 11 -36 31 -50 44 -101 93 -377
287 -535 378 -402 229 -881 387 -1320 434 -27 3 -63 8 -80 10 -34 6 -541 14
-547 10z m467 -760 c171 -19 280 -37 405 -67 951 -231 1724 -987 1974 -1933
28 -104 52 -219 62 -291 3 -27 8 -52 9 -55 17 -28 26 -471 13 -605 -8 -77 -26
-206 -33 -239 -5 -21 -11 -54 -22 -111 -10 -56 -72 -263 -108 -362 -88 -237
-261 -540 -431 -753 -37 -47 -131 -148 -209 -225 -411 -412 -942 -676 -1525
-759 -228 -32 -678 -27 -810 9 -8 2 -35 7 -60 10 -37 5 -105 19 -190 40 -59
15 -204 61 -282 90 -110 42 -117 45 -323 147 -186 92 -146 90 -423 23 -101
-25 -193 -47 -205 -49 -12 -2 -80 -18 -152 -36 -154 -37 -125 -30 -310 -74
-82 -19 -151 -34 -152 -33 0 1 7 43 18 92 10 50 21 101 24 115 2 14 14 70 25
125 12 55 23 110 26 122 9 50 15 77 64 313 28 135 54 264 59 287 8 39 3 51
-82 219 -106 211 -204 455 -232 578 -2 12 -11 50 -20 86 -21 93 -33 148 -39
200 -10 70 -18 123 -23 145 -8 37 -10 439 -3 505 5 36 11 94 14 129 4 35 11
85 16 110 5 25 11 57 14 71 21 127 97 381 154 510 206 474 497 845 894 1142
151 113 399 254 563 321 33 13 69 28 80 32 11 5 22 9 25 9 3 1 25 9 50 18 97
37 337 100 425 113 17 2 48 7 70 11 63 10 85 12 175 20 47 3 86 7 88 9 4 3
343 -4 387 -9z"/>
<path d="M2275 5188 c-46 -16 -124 -80 -222 -181 -105 -109 -159 -180 -212
-279 -68 -129 -82 -187 -86 -363 -7 -286 77 -571 258 -875 28 -47 61 -99 74
-116 13 -17 23 -36 23 -42 0 -6 3 -12 8 -14 4 -1 36 -41 71 -88 267 -352 660
-721 1041 -975 198 -133 388 -231 585 -303 228 -83 393 -112 615 -107 169 3
193 6 293 31 169 43 340 169 482 354 28 36 52 67 55 70 14 14 78 119 89 147
31 76 15 175 -40 244 -37 47 -106 80 -259 124 -69 20 -147 42 -175 50 -27 8
-106 30 -175 50 -69 19 -143 41 -165 48 -61 19 -153 14 -200 -11 -22 -11 -94
-74 -160 -140 -133 -132 -171 -153 -268 -147 -115 7 -368 169 -676 434 -98 84
-374 360 -431 431 -25 30 -47 57 -50 60 -21 19 -85 130 -96 166 -28 95 -7 152
115 312 107 140 120 170 117 254 -3 55 -16 92 -106 293 -56 127 -122 277 -148
335 -57 130 -83 171 -131 204 -64 45 -156 58 -226 34z"/>
</g>
</svg>
